<svg height="405pt" viewBox="-22 0 405 405.84192" width="405pt" xmlns="http://www.w3.org/2000/svg"><path d="m307.621094 224.933594c0 84.832031-68.769532 153.601562-153.601563 153.601562-84.828125 0-153.597656-68.769531-153.597656-153.601562 0-84.828125 68.769531-153.597656 153.597656-153.597656 84.832031 0 153.601563 68.769531 153.601563 153.597656zm0 0" fill="#efefd2"/><path d="m252.671875 81.398438c0 26.042968-9.800781 49.433593-18.84375 65.46875-7.058594 12.511718-22.804687 12.511718-29.863281 0-9.042969-16.035157-18.84375-39.425782-18.84375-65.46875 0-25.792969 9.613281-48.980469 18.582031-65 7.144531-12.761719 23.242187-12.761719 30.386719 0 8.96875 16.019531 18.582031 39.207031 18.582031 65zm0 0" fill="#a9ba5a"/><path d="m218.894531 163.078125c-8.53125 0-16.332031-4.804687-20.878906-12.859375-8.996094-15.960938-19.722656-40.855469-19.722656-68.820312 0-27.757813 10.582031-52.480469 19.449219-68.332032 4.585937-8.183594 12.492187-13.066406 21.15625-13.066406h.003906c8.667968.00390625 16.566406 4.886719 21.148437 13.066406 8.871094 15.84375 19.453125 40.5625 19.453125 68.332032 0 27.976562-10.726562 52.867187-19.726562 68.820312-4.542969 8.050781-12.339844 12.855469-20.875 12.859375 0 0 0 0-.007813 0zm0-149.425781c-3.707031 0-7.074219 2.21875-9.238281 6.082031-8.074219 14.433594-17.707031 36.847656-17.707031 61.664063 0 25.003906 9.765625 47.582031 17.957031 62.113281 4.234375 7.507812 13.726562 7.519531 17.972656 0 8.203125-14.527344 17.96875-37.097657 17.96875-62.113281 0-24.824219-9.636718-47.234376-17.714844-61.664063-2.167968-3.867187-5.527343-6.082031-9.234374-6.082031zm0 0" fill="#4c241d"/><path d="m283.632812 111.933594c-10.515624 23.828125-28.921874 41.269531-43.667968 52.289062-11.507813 8.601563-25.917969 2.246094-27.324219-12.054687-1.800781-18.320313-1.328125-43.671875 9.183594-67.5 10.410156-23.601563 28.566406-40.933594 43.238281-51.972657 11.6875-8.789062 26.417969-2.292968 27.804688 12.265626 1.742187 18.28125 1.175781 43.371093-9.234376 66.972656zm0 0" fill="#a9ba5a"/><path d="m228.878906 174.945312c-3.113281 0-6.207031-.628906-9.117187-1.917968-7.808594-3.441406-13.007813-10.988282-13.914063-20.1875-1.792968-18.234375-1.558594-45.339844 9.734375-70.933594 11.199219-25.394531 30.859375-43.746094 45.378907-54.667969 7.5-5.636719 16.699218-6.921875 24.621093-3.414062 7.925781 3.496093 13.191407 11.15625 14.078125 20.492187 1.726563 18.078125 1.425782 44.964844-9.777344 70.367188v.003906c-11.292968 25.597656-31.15625 44.039062-45.828124 55.003906-4.640626 3.46875-9.941407 5.253906-15.175782 5.253906zm47.460938-139.410156c-2.382813 0-4.871094.886719-7.164063 2.613282-13.226562 9.945312-31.085937 26.566406-41.101562 49.269531-10.09375 22.882812-10.273438 47.476562-8.636719 64.085937.417969 4.289063 2.550781 7.585938 5.839844 9.035156 3.277344 1.449219 7.152344.792969 10.605468-1.785156 13.359376-9.984375 31.40625-26.691406 41.507813-49.578125v.003907c10.019531-22.714844 10.253906-47.109376 8.683594-63.570313-.417969-4.410156-2.605469-7.796875-6-9.292969-1.1875-.523437-2.445313-.78125-3.734375-.78125zm7.292968 76.398438h.066407zm0 0" fill="#4c241d"/><path d="m154.160156 111.933594c10.515625 23.828125 28.921875 41.269531 43.667969 52.289062 11.507813 8.601563 25.917969 2.246094 27.324219-12.054687 1.800781-18.320313 1.328125-43.671875-9.183594-67.5-10.410156-23.601563-28.566406-40.933594-43.238281-51.972657-11.6875-8.789062-26.417969-2.292968-27.804688 12.265626-1.742187 18.28125-1.175781 43.371093 9.234375 66.972656zm0 0" fill="#a9ba5a"/><path d="m208.914062 174.945312c-5.234374 0-10.535156-1.785156-15.175781-5.257812-14.671875-10.960938-34.53125-29.402344-45.824219-55-11.207031-25.394531-11.507812-52.285156-9.78125-70.371094.882813-9.332031 6.140626-16.992187 14.074219-20.492187 7.90625-3.5 17.125-2.222657 24.625 3.417969 14.515625 10.914062 34.167969 29.261718 45.382813 54.664062 11.285156 25.582031 11.519531 52.691406 9.726562 70.929688-.90625 9.203124-6.105468 16.753906-13.914062 20.195312-2.914063 1.285156-6 1.914062-9.113282 1.914062zm-47.457031-139.414062c-1.289062 0-2.546875.261719-3.742187.789062-3.386719 1.496094-5.574219 4.878907-5.992188 9.285157-1.566406 16.472656-1.332031 40.871093 8.6875 63.570312 10.097656 22.886719 28.144532 39.59375 41.503906 49.578125 3.453126 2.578125 7.3125 3.234375 10.601563 1.785156 3.285156-1.449218 5.421875-4.742187 5.839844-9.039062 1.632812-16.605469 1.460937-41.207031-8.632813-64.078125-10.019531-22.714844-27.882812-39.328125-41.101562-49.269531-2.292969-1.730469-4.78125-2.621094-7.164063-2.621094zm0 0" fill="#4c241d"/><path d="m248.871094 154.710938c26.464844 18.203124 62.671875 11.503906 80.875-14.960938 18.199218-26.464844 11.5-62.675781-14.964844-80.875zm0 0" fill="#a9ba5a"/><path d="m281.695312 171.796875c-13.027343 0-25.726562-3.921875-36.6875-11.460937-3.105468-2.136719-3.890624-6.386719-1.757812-9.492188l65.90625-95.835938c2.140625-3.109374 6.390625-3.882812 9.492188-1.757812 29.527343 20.300781 37.027343 60.84375 16.726562 90.367188-9.839844 14.300781-24.652344 23.917968-41.726562 27.074218-3.988282.742188-7.988282 1.105469-11.953126 1.105469zm-23.074218-19.207031c9.992187 5.085937 21.304687 6.761718 32.546875 4.679687 13.476562-2.496093 25.1875-10.089843 32.953125-21.386719 14.726562-21.417968 10.933594-50.167968-7.839844-67.140624zm0 0" fill="#4c241d"/><path d="m188.921875 154.710938c-26.464844 18.203124-62.671875 11.503906-80.875-14.960938-18.199219-26.464844-11.5-62.675781 14.964844-80.875zm0 0" fill="#a9ba5a"/><path d="m156.058594 171.753906c-20.691406 0-41.050782-9.835937-53.640625-28.136718-20.300781-29.523438-12.796875-70.0625 16.722656-90.363282 1.492187-1.03125 3.3125-1.429687 5.105469-1.089844 1.78125.328126 3.359375 1.351563 4.386718 2.84375l65.914063 95.835938c1.027344 1.492188 1.410156 3.332031 1.085937 5.113281-.332031 1.777344-1.351562 3.355469-2.847656 4.382813-11.21875 7.714844-24.039062 11.414062-36.726562 11.414062zm-34.550782-103.011718c-18.765624 16.976562-22.5625 45.722656-7.835937 67.140624 7.769531 11.296876 19.476563 18.890626 32.957031 21.386719 11.1875 2.0625 22.539063.414063 32.542969-4.679687zm0 0" fill="#4c241d"/><path d="m353.773438 153.253906h-269.984376l32.359376 197.480469h205.265624zm0 0" fill="#fff"/><path d="m321.414062 357.5625h-205.265624c-3.347657 0-6.195313-2.425781-6.738282-5.726562l-32.363281-197.476563c-.320313-1.976563.242187-3.996094 1.542969-5.523437 1.292968-1.527344 3.191406-2.40625 5.199218-2.40625h269.984376c2.007812 0 3.90625.882812 5.199218 2.40625 1.300782 1.527343 1.863282 3.546874 1.542969 5.523437l-32.363281 197.480469c-.542969 3.296875-3.390625 5.722656-6.738282 5.722656zm-199.464843-13.652344h193.664062l30.128907-183.828125h-253.921876zm0 0" fill="#4c241d"/><path d="m116.148438 351.230469 7.191406 47.785156h190.886718l7.1875-47.785156zm0 0" fill="#bf7e68"/><path d="m314.226562 405.84375h-190.882812c-3.382812 0-6.25-2.472656-6.753906-5.8125l-7.195313-47.785156c-.292969-1.964844.28125-3.964844 1.582031-5.46875 1.292969-1.507813 3.183594-2.375 5.171876-2.375h205.265624c1.988282 0 3.878907.867187 5.171876 2.375 1.300781 1.503906 1.875 3.503906 1.582031 5.46875l-7.1875 47.785156c-.507813 3.339844-3.371094 5.8125-6.753907 5.8125zm-185.011718-13.65625h179.132812l5.132813-34.132812h-189.398438zm0 0" fill="#4c241d"/><path d="m293.90625 295.765625-2.898438 15.527344" fill="#fff"/><path d="m291.015625 318.121094c-.414063 0-.832031-.039063-1.261719-.117188-3.707031-.691406-6.144531-4.253906-5.457031-7.960937l2.890625-15.527344c.695312-3.707031 4.203125-6.164063 7.96875-5.460937 3.707031.691406 6.148438 4.253906 5.457031 7.960937l-2.890625 15.527344c-.613281 3.28125-3.480468 5.578125-6.707031 5.578125zm0 0" fill="#4c241d"/><path d="m312.691406 195.121094-13.601562 72.863281" fill="#fff"/><path d="m299.09375 274.8125c-.414062 0-.832031-.035156-1.257812-.117188-3.707032-.6875-6.148438-4.253906-5.460938-7.960937l13.609375-72.867187c.691406-3.703126 4.191406-6.167969 7.964844-5.457032 3.707031.691406 6.148437 4.257813 5.460937 7.964844l-13.609375 72.867188c-.613281 3.28125-3.480469 5.570312-6.707031 5.570312zm0 0" fill="#4c241d"/></svg>