<?xml version="1.0"?>
<svg xmlns="http://www.w3.org/2000/svg" xmlns:xlink="http://www.w3.org/1999/xlink" version="1.1" id="Capa_1" x="0px" y="0px" viewBox="0 0 511.63 511.63" style="enable-background:new 0 0 511.63 511.63;" xml:space="preserve" width="512px" height="512px"><g><g>
	<g>
		<path d="M323.764,403.708H187.865c-2.209,0-3.997,1.779-3.997,3.997v55.96c0,1.061,0.421,2.076,1.171,2.826l15.989,15.988    c0.749,0.75,1.764,1.172,2.826,1.172h103.922c1.061,0,2.076-0.422,2.826-1.172l15.988-15.988c0.749-0.75,1.171-1.764,1.171-2.826    v-55.96C327.761,405.487,325.982,403.708,323.764,403.708z M319.767,462.01l-13.646,13.646H205.509l-13.647-13.646v-50.308    h127.905V462.01z" data-original="#000000" class="active-path" data-old_color="#000000" fill="#26547C"/>
	</g>
</g><g>
	<g>
		<path d="M331.556,419.696L179.66,427.69c-2.201,0.125-3.895,1.999-3.778,4.2c0.109,2.14,1.874,3.794,3.989,3.794    c0.07,0,0.14,0,0.211-0.016l151.896-7.994c2.202-0.109,3.887-1.998,3.778-4.199C335.647,421.273,333.789,419.54,331.556,419.696z" data-original="#000000" class="active-path" data-old_color="#000000" fill="#26547C"/>
	</g>
</g><g>
	<g>
		<path d="M331.556,443.68l-151.896,7.994c-2.201,0.125-3.895,1.998-3.778,4.2c0.109,2.139,1.874,3.794,3.989,3.794    c0.07,0,0.14,0,0.211-0.016l151.896-7.994c2.202-0.109,3.887-1.999,3.778-4.2C335.647,445.257,333.789,443.461,331.556,443.68z" data-original="#000000" class="active-path" data-old_color="#000000" fill="#26547C"/>
	</g>
</g><g>
	<g>
		<path d="M255.817,131.897c-74.939,0-135.903,60.965-135.903,135.907c0,47.185,23.858,90.06,63.954,115.121v24.78    c0,2.201,1.788,3.997,3.997,3.997h135.899c2.218,0,3.997-1.796,3.997-3.998v-24.779c40.097-25.06,63.954-67.92,63.954-115.121    C391.715,192.861,330.759,131.897,255.817,131.897z M321.703,377.273c-1.202,0.719-1.936,2.03-1.936,3.42v23.015H191.864v-23.015    c0-1.39-0.734-2.701-1.936-3.42c-38.832-23.421-62.019-64.345-62.019-109.469c0-70.531,57.381-127.912,127.909-127.912    c70.523,0,127.904,57.381,127.904,127.912C383.722,312.928,360.535,353.852,321.703,377.273z" data-original="#000000" class="active-path" data-old_color="#000000" fill="#26547C"/>
	</g>
</g><g>
	<g>
		<path d="M293.599,476.109c-1.952-0.999-4.341-0.219-5.371,1.718c-0.297,0.561-7.526,13.818-32.41,13.818    c-24.842,0-32.103-13.21-32.415-13.818c-0.992-1.952-3.372-2.732-5.348-1.749c-1.975,0.983-2.772,3.387-1.788,5.355    c0.374,0.749,9.446,18.206,39.55,18.206c30.1,0,39.171-17.457,39.547-18.206C296.347,479.481,295.551,477.108,293.599,476.109z" data-original="#000000" class="active-path" data-old_color="#000000" fill="#26547C"/>
	</g>
</g><g>
	<g>
		<path d="M83.947,263.803H3.997c-2.21,0-3.997,1.784-3.997,4.001c0,2.202,1.787,3.997,3.997,3.997h79.95    c2.21,0,3.997-1.795,3.998-3.997C87.945,265.587,86.157,263.803,83.947,263.803z" data-original="#000000" class="active-path" data-old_color="#000000" fill="#26547C"/>
	</g>
</g><g>
	<g>
		<path d="M507.633,263.803l-79.943,0.004c-2.201,0-3.997,1.796-3.997,3.997c0,2.218,1.796,3.997,3.997,3.997h79.943    c2.201,0,3.997-1.795,3.997-3.997C511.63,265.587,509.834,263.803,507.633,263.803z" data-original="#000000" class="active-path" data-old_color="#000000" fill="#26547C"/>
	</g>
</g><g>
	<g>
		<path d="M110.445,351.744c-1.101-1.921-3.552-2.576-5.457-1.468L35.74,390.248c-1.913,1.109-2.568,3.544-1.46,5.465    c0.733,1.28,2.084,1.998,3.458,1.998c0.679,0,1.366-0.171,2-0.546l69.247-39.972C110.898,356.1,111.553,353.648,110.445,351.744z" data-original="#000000" class="active-path" data-old_color="#000000" fill="#26547C"/>
	</g>
</g><g>
	<g>
		<path d="M477.358,139.9c-1.109-1.921-3.561-2.573-5.465-1.464l-69.217,39.971c-1.904,1.105-2.56,3.548-1.452,5.461    c0.734,1.285,2.077,1.999,3.451,1.999c0.688,0,1.374-0.172,1.998-0.535l69.217-39.971    C477.81,144.256,478.466,141.812,477.358,139.9z" data-original="#000000" class="active-path" data-old_color="#000000" fill="#26547C"/>
	</g>
</g><g>
	<g>
		<path d="M383.721,46.267c-1.905-1.089-4.356-0.445-5.449,1.464l-39.956,69.224c-1.109,1.913-0.452,4.356,1.452,5.461    c0.641,0.363,1.327,0.535,1.999,0.535c1.374,0,2.733-0.719,3.466-1.999l39.956-69.224    C386.297,49.815,385.642,47.371,383.721,46.267z" data-original="#000000" class="active-path" data-old_color="#000000" fill="#26547C"/>
	</g>
</g><g>
	<g>
		<path d="M255.833,11.991c-2.21,0-3.998,1.788-3.998,3.997v79.928c0,2.209,1.788,3.997,3.998,3.997    c2.209,0,3.997-1.788,3.997-3.997V15.988C259.83,13.779,258.042,11.991,255.833,11.991z" data-original="#000000" class="active-path" data-old_color="#000000" fill="#26547C"/>
	</g>
</g><g>
	<g>
		<path d="M173.353,116.939l-39.972-69.216c-1.101-1.924-3.552-2.568-5.457-1.464c-1.913,1.105-2.568,3.548-1.46,5.461    l39.972,69.216c0.733,1.285,2.084,1.999,3.458,1.999c0.679,0,1.366-0.172,1.999-0.535    C173.806,121.295,174.461,118.852,173.353,116.939z" data-original="#000000" class="active-path" data-old_color="#000000" fill="#26547C"/>
	</g>
</g><g>
	<g>
		<path d="M475.906,390.233l-69.232-39.972c-1.904-1.093-4.355-0.453-5.449,1.468c-1.109,1.904-0.452,4.356,1.452,5.449    l69.232,39.972c0.64,0.374,1.327,0.546,1.998,0.546c1.374,0,2.732-0.718,3.467-1.998    C478.482,393.777,477.826,391.341,475.906,390.233z" data-original="#000000" class="active-path" data-old_color="#000000" fill="#26547C"/>
	</g>
</g><g>
	<g>
		<path d="M108.984,178.376L39.752,138.42c-1.905-1.093-4.356-0.441-5.457,1.464c-1.108,1.912-0.453,4.356,1.46,5.461l69.231,39.956    c0.633,0.363,1.32,0.535,1.999,0.535c1.374,0,2.725-0.719,3.459-1.999C111.552,181.924,110.897,179.481,108.984,178.376z" data-original="#000000" class="active-path" data-old_color="#000000" fill="#26547C"/>
	</g>
</g><g>
	<g>
		<path d="M255.817,231.826c-22.039,0-39.972,17.932-39.972,39.975c0,22.032,17.933,39.972,39.972,39.972    c22.042,0,39.968-17.94,39.968-39.972C295.785,249.758,277.859,231.826,255.817,231.826z M255.817,303.779    c-17.637,0-31.978-14.35-31.978-31.978c0-17.635,14.342-31.98,31.978-31.98c17.64,0,31.973,14.345,31.973,31.98    C287.79,289.429,273.457,303.779,255.817,303.779z" data-original="#000000" class="active-path" data-old_color="#000000" fill="#26547C"/>
	</g>
</g><g>
	<g>
		<path d="M255.817,255.81c-8.815,0-15.989,7.175-15.989,15.992c0,8.806,7.175,15.988,15.989,15.988    c8.817,0,15.984-7.182,15.984-15.988C271.801,262.985,264.634,255.81,255.817,255.81z M255.817,279.795    c-4.412,0-7.995-3.591-7.995-7.994c0-4.418,3.584-7.998,7.995-7.998s7.99,3.58,7.99,7.998    C263.807,276.204,260.229,279.795,255.817,279.795z" data-original="#000000" class="active-path" data-old_color="#000000" fill="#26547C"/>
	</g>
</g><g>
	<g>
		<path d="M335.772,247.818h-2.889c-3.262,0-5.699-1.691-5.979-2.374c-0.967-2.763-0.889-9.93,0.39-11.21l2.015-2.015    c2.248-2.256,3.497-5.269,3.497-8.478c0-3.209-1.249-6.223-3.497-8.479l-16.957-16.957c-4.512-4.513-12.444-4.517-16.956,0.004    l-2.015,2.014c-1.749,1.733-4.044,2.546-5.886,2.588c-2.638-1.265-7.682-6.367-7.698-8.182v-2.873    c0-6.613-5.371-11.992-11.991-11.992h-23.979c-6.613,0-11.992,5.379-11.992,11.992v2.873c0,3.271-1.694,5.711-2.381,5.984    c-0.742,0.261-3.037,0.648-5.598,0.648c-3.724,0-5.332-0.766-5.598-1.035l-2.014-2.014c-4.513-4.513-12.444-4.513-16.957,0    l-16.957,16.964c-4.676,4.677-4.676,12.281,0,16.957l2.006,2.007c2.303,2.299,2.857,5.215,2.584,5.894    c-1.226,2.564-6.402,7.666-8.174,7.682h-2.881c-6.612,0-11.991,5.379-11.991,11.991l0.008,23.987    c0,6.604,5.379,11.991,11.991,11.991h2.873c3.263,0,5.707,1.686,5.98,2.373c0.96,2.764,0.897,9.931-0.383,11.211l-2.014,2.014    c-2.257,2.25-3.498,5.263-3.498,8.479c0,3.202,1.242,6.214,3.498,8.479l16.957,16.94c4.513,4.513,12.445,4.513,16.957,0    l2.014-2.014c1.733-1.734,3.982-2.654,5.879-2.592c2.638,1.28,7.681,6.385,7.697,8.197v2.873c0,6.604,5.379,11.991,11.992,11.991    h23.979c6.62,0,11.991-5.387,11.993-11.988v-2.873c0-3.279,1.702-5.714,2.374-5.98c0.749-0.265,3.043-0.655,5.604-0.655    c3.732,0,5.325,0.764,5.59,1.03l2.03,2.029c4.512,4.513,12.444,4.513,16.956,0l16.957-16.972c2.248-2.25,3.497-5.262,3.497-8.479    c0-3.201-1.249-6.214-3.497-8.479l-2.015-2.014c-2.295-2.296-2.858-5.2-2.592-5.871c1.266-2.638,6.371-7.681,8.182-7.697h2.889    c6.605,0,11.992-5.387,11.992-11.991v-23.987C347.764,253.197,342.377,247.818,335.772,247.818z M339.768,283.793    c0,2.201-1.795,3.996-3.997,3.996h-2.889c-7.026,0-14.193,9.729-15.395,12.227c-2.281,4.777,0.436,11.289,4.152,14.989    l2.015,2.014c0.749,0.75,1.155,1.749,1.155,2.826c0,1.077-0.406,2.077-1.155,2.826l-16.956,16.973c-1.5,1.499-4.154,1.499-5.652,0    l-2.03-2.03c-2.232-2.232-6.011-3.373-11.242-3.373c-3.091,0-6.323,0.438-8.244,1.094c-4.404,1.546-7.729,7.369-7.729,13.537    v2.873c0,2.201-1.796,3.997-3.997,3.997h-23.979c-2.202,0-3.997-1.796-3.997-3.997v-2.873c0-7.042-9.735-14.194-12.234-15.396    c-1.155-0.562-2.475-0.843-3.919-0.843c-3.755,0-8.002,1.92-11.07,4.978l-2.014,2.015c-1.499,1.499-4.153,1.499-5.652,0    l-16.957-16.941c-0.749-0.749-1.155-1.749-1.155-2.826c0-1.077,0.406-2.076,1.155-2.826l2.015-2.014    c5.035-5.044,3.224-16.785,2.287-19.486c-1.538-4.419-7.362-7.745-13.537-7.745h-2.873c-2.201,0-3.997-1.795-3.997-3.996    l-0.008-23.987c0-2.205,1.796-3.997,3.997-3.997h2.881c7.058,0,14.201-9.743,15.388-12.233c1.998-4.184,0.218-10.629-4.146-14.989    l-2.007-2.007c-1.561-1.557-1.561-4.095,0-5.652l16.957-16.964c1.499-1.499,4.153-1.499,5.652,0l2.014,2.014    c2.241,2.241,6.027,3.377,11.25,3.377c3.107,0,6.339-0.43,8.236-1.093c4.411-1.546,7.737-7.363,7.737-13.534v-2.873    c0-2.206,1.795-3.998,3.997-3.998h23.98c2.201,0,3.997,1.792,3.997,3.998v2.873c0,7.042,9.743,14.197,12.241,15.387    c4.169,2.018,10.742,0.109,14.989-4.142l2.015-2.014c1.498-1.499,4.152-1.491,5.652-0.004l16.956,16.957    c0.749,0.749,1.155,1.752,1.155,2.826c0,1.074-0.406,2.077-1.155,2.826l-2.015,2.015c-4.965,4.969-3.185,16.89-2.295,19.486    c1.546,4.415,7.354,7.745,13.537,7.745h2.889c2.202,0,3.997,1.792,3.997,3.997V283.793z" data-original="#000000" class="active-path" data-old_color="#000000" fill="#26547C"/>
	</g>
</g><g>
	<g>
		<path d="M255.818,211.84c-33.063,0-59.958,26.895-59.958,59.961c0,2.202,1.788,3.997,3.997,3.997c2.209,0,3.997-1.795,3.998-3.997    c0-28.655,23.312-51.967,51.963-51.967c2.209,0,3.997-1.788,3.997-3.997S258.027,211.84,255.818,211.84z" data-original="#000000" class="active-path" data-old_color="#000000" fill="#26547C"/>
	</g>
</g><g>
	<g>
		<path d="M311.773,267.804c-2.201,0-3.997,1.78-3.997,3.997c0,28.651-23.312,51.963-51.959,51.963c-2.21,0-3.998,1.78-3.998,3.997    c0,2.202,1.788,3.997,3.998,3.997c33.065,0,59.953-26.902,59.953-59.957C315.77,269.584,313.99,267.804,311.773,267.804z" data-original="#000000" class="active-path" data-old_color="#000000" fill="#26547C"/>
	</g>
</g></g> </svg>
