<?xml version="1.0"?>
<svg xmlns="http://www.w3.org/2000/svg" xmlns:xlink="http://www.w3.org/1999/xlink" version="1.1" id="Capa_1" x="0px" y="0px" viewBox="0 0 511.634 511.634" style="enable-background:new 0 0 511.634 511.634;" xml:space="preserve" width="512px" height="512px"><g><g>
	<g>
		<path d="M330.763,221.733c-1.155-1.882-3.615-2.463-5.496-1.3c-1.882,1.159-2.459,3.622-1.304,5.5    c19.509,31.599,14.74,72.054-11.609,98.395c-15.137,15.13-35.209,23.468-56.529,23.468c0,0,0,0-0.008,0    c-21.313,0-41.384-8.338-56.522-23.468c-15.13-15.129-23.46-35.209-23.468-56.522c0-21.317,8.338-41.392,23.468-56.526    c26.341-26.349,66.803-31.115,98.406-11.621c1.882,1.159,4.341,0.574,5.496-1.3c1.163-1.878,0.578-4.341-1.296-5.5    c-34.773-21.468-79.287-16.207-108.259,12.769c-16.645,16.64-25.81,38.726-25.81,62.178c0.008,23.452,9.173,45.53,25.81,62.175    c16.645,16.645,38.723,25.81,62.175,25.81c0.008,0,0.008,0,0.007-0.001c23.453,0,45.538-9.165,62.182-25.81    C346.986,301.016,352.232,256.501,330.763,221.733z" data-original="#000000" class="active-path" data-old_color="#000000" fill="#FFFCF9"/>
	</g>
</g><g>
	<g>
		<path d="M307.734,237.799c-1.109-1.901-3.545-2.553-5.465-1.452c-1.913,1.109-2.561,3.552-1.452,5.465    c11.764,20.29,8.361,46.072-8.268,62.717c-20.251,20.236-53.196,20.236-73.44,0c-20.244-20.251-20.244-53.2,0-73.443    c16.621-16.621,42.399-20.036,62.674-8.291c1.912,1.105,4.356,0.449,5.465-1.456c1.108-1.909,0.453-4.357-1.46-5.461    c-23.405-13.552-53.157-9.622-72.331,9.556c-23.358,23.358-23.358,61.374,0,84.748c11.679,11.68,27.019,17.52,42.368,17.52    c15.341-0.016,30.688-5.84,42.377-17.521C317.391,290.991,321.31,261.22,307.734,237.799z" data-original="#000000" class="active-path" data-old_color="#000000" fill="#FFFCF9"/>
	</g>
</g><g>
	<g>
		<path d="M287.467,263.235c-0.312-2.186-2.335-3.661-4.528-3.388c-2.179,0.32-3.693,2.341-3.381,4.524    c1.093,7.541-1.382,14.974-6.784,20.392c-9.345,9.321-24.545,9.337-33.89,0c-9.345-9.353-9.345-24.557,0-33.902    c5.394-5.406,12.811-7.897,20.36-6.792c2.232,0.312,4.216-1.202,4.528-3.388c0.312-2.186-1.202-4.212-3.389-4.528    c-10.086-1.451-19.962,1.855-27.152,9.057c-12.46,12.459-12.46,32.73,0,45.206c6.223,6.214,14.404,9.337,22.586,9.337    c8.189,0,16.371-3.124,22.609-9.337C285.632,283.186,288.926,273.287,287.467,263.235z" data-original="#000000" class="active-path" data-old_color="#000000" fill="#FFFCF9"/>
	</g>
</g><g>
	<g>
		<path d="M323.768,403.71H187.865c-2.209,0-3.997,1.779-3.997,3.997v55.96c0,1.061,0.421,2.076,1.171,2.826l15.989,15.988    c0.749,0.75,1.764,1.172,2.826,1.172H307.78c1.061,0,2.076-0.422,2.826-1.172l15.988-15.988c0.749-0.75,1.171-1.764,1.171-2.826    v-55.96C327.765,405.489,325.978,403.71,323.768,403.71z M319.771,462.012l-13.646,13.646H205.509l-13.647-13.646v-50.308h127.909    V462.012z" data-original="#000000" class="active-path" data-old_color="#000000" fill="#FFFCF9"/>
	</g>
</g><g>
	<g>
		<path d="M331.552,419.698l-151.892,7.994c-2.201,0.125-3.895,1.999-3.778,4.2c0.109,2.14,1.874,3.794,3.989,3.794    c0.07,0,0.14,0,0.211-0.016l151.892-7.994c2.202-0.109,3.895-1.998,3.778-4.199C335.635,421.275,333.739,419.417,331.552,419.698z    " data-original="#000000" class="active-path" data-old_color="#000000" fill="#FFFCF9"/>
	</g>
</g><g>
	<g>
		<path d="M331.552,443.682l-151.892,7.994c-2.201,0.125-3.895,1.998-3.778,4.2c0.109,2.139,1.874,3.794,3.989,3.794    c0.07,0,0.14,0,0.211-0.016l151.892-7.994c2.202-0.109,3.895-1.999,3.778-4.2C335.635,445.259,333.739,443.416,331.552,443.682z" data-original="#000000" class="active-path" data-old_color="#000000" fill="#FFFCF9"/>
	</g>
</g><g>
	<g>
		<path d="M255.817,131.891c-74.939,0-135.903,60.969-135.903,135.915c0,47.201,23.866,90.06,63.954,115.121v24.78    c0,2.201,1.788,3.997,3.997,3.997h135.903c2.21,0,3.997-1.796,3.997-3.998v-24.779c40.089-25.045,63.954-67.92,63.954-115.121    C391.719,192.859,330.755,131.891,255.817,131.891z M321.699,377.259c-1.194,0.735-1.928,2.031-1.928,3.436v23.015H191.862    v-23.015c0-1.405-0.734-2.701-1.928-3.42c-38.839-23.421-62.026-64.345-62.026-109.469c0-70.535,57.381-127.92,127.909-127.92    c70.527,0,127.908,57.385,127.908,127.92C383.725,312.93,360.539,353.854,321.699,377.259z" data-original="#000000" class="active-path" data-old_color="#000000" fill="#FFFCF9"/>
	</g>
</g><g>
	<g>
		<path d="M293.603,476.112c-1.952-0.999-4.349-0.219-5.371,1.718c-0.297,0.561-7.534,13.818-32.414,13.818    c-24.788,0-32.064-13.148-32.415-13.803c-0.992-1.968-3.38-2.764-5.348-1.765c-1.975,0.983-2.772,3.387-1.788,5.355    c0.374,0.749,9.446,18.206,39.55,18.206s39.175-17.457,39.551-18.205C296.343,479.484,295.555,477.111,293.603,476.112z" data-original="#000000" class="active-path" data-old_color="#000000" fill="#FFFCF9"/>
	</g>
</g><g>
	<g>
		<path d="M83.947,263.805H3.997c-2.21,0-3.997,1.784-3.997,4.001c0,2.202,1.787,3.997,3.997,3.997h79.95    c2.21,0,3.997-1.795,3.998-3.997C87.945,265.589,86.157,263.805,83.947,263.805z" data-original="#000000" class="active-path" data-old_color="#000000" fill="#FFFCF9"/>
	</g>
</g><g>
	<g>
		<path d="M507.637,263.805h-79.943c-2.209,0-3.997,1.784-3.997,4.001c0,2.202,1.788,3.997,3.997,3.997h79.943    c2.209,0,3.997-1.795,3.997-3.997C511.634,265.589,509.846,263.805,507.637,263.805z" data-original="#000000" class="active-path" data-old_color="#000000" fill="#FFFCF9"/>
	</g>
</g><g>
	<g>
		<path d="M100.725,332.041c-0.843-2.045-3.193-3.014-5.223-2.17l-73.861,30.604c-2.038,0.842-3.006,3.184-2.163,5.23    c0.632,1.529,2.124,2.467,3.693,2.467c0.506,0,1.03-0.093,1.53-0.312l73.862-30.604    C100.6,336.413,101.568,334.071,100.725,332.041z" data-original="#000000" class="active-path" data-old_color="#000000" fill="#FFFCF9"/>
	</g>
</g><g>
	<g>
		<path d="M492.157,169.903c-0.844-2.038-3.186-3.002-5.223-2.163l-73.854,30.588c-2.038,0.843-3.006,3.182-2.163,5.223    c0.632,1.538,2.124,2.467,3.693,2.467c0.507,0,1.03-0.097,1.531-0.305l73.854-30.587C492.032,174.282,493,171.944,492.157,169.903    z" data-original="#000000" class="active-path" data-old_color="#000000" fill="#FFFCF9"/>
	</g>
</g><g>
	<g>
		<path d="M137.112,386.503c-1.561-1.561-4.09-1.561-5.652,0l-56.53,56.538c-1.562,1.561-1.562,4.09,0,5.652    c0.78,0.78,1.803,1.171,2.826,1.171c1.023,0,2.045-0.391,2.826-1.171l56.53-56.538    C138.673,390.595,138.673,388.065,137.112,386.503z" data-original="#000000" class="active-path" data-old_color="#000000" fill="#FFFCF9"/>
	</g>
</g><g>
	<g>
		<path d="M353.716,31.463c-2.031-0.847-4.38,0.121-5.223,2.162l-30.588,73.854c-0.843,2.042,0.125,4.38,2.163,5.223    c0.499,0.207,1.014,0.304,1.529,0.304c1.563,0,3.053-0.928,3.694-2.466l30.588-73.854    C356.722,34.644,355.754,32.306,353.716,31.463z" data-original="#000000" class="active-path" data-old_color="#000000" fill="#FFFCF9"/>
	</g>
</g><g>
	<g>
		<path d="M255.825,11.993c-2.21,0-3.998,1.788-3.998,3.997v79.935c0,2.209,1.788,3.997,3.998,3.997    c2.209,0,3.997-1.788,3.997-3.996V15.99C259.822,13.781,258.034,11.993,255.825,11.993z" data-original="#000000" class="active-path" data-old_color="#000000" fill="#FFFCF9"/>
	</g>
</g><g>
	<g>
		<path d="M193.743,107.478l-30.587-73.854c-0.843-2.041-3.201-3.005-5.223-2.162c-2.037,0.843-3.005,3.181-2.162,5.223    l30.587,73.854c0.632,1.538,2.124,2.467,3.693,2.467c0.508,0,1.031-0.097,1.53-0.305    C193.618,111.858,194.586,109.52,193.743,107.478z" data-original="#000000" class="active-path" data-old_color="#000000" fill="#FFFCF9"/>
	</g>
</g><g>
	<g>
		<path d="M436.703,443.041l-56.537-56.538c-1.561-1.561-4.09-1.561-5.652,0c-1.562,1.561-1.562,4.091,0,5.652l56.537,56.538    c0.781,0.78,1.804,1.171,2.826,1.171c1.023,0,2.045-0.391,2.826-1.171C438.265,447.132,438.265,444.603,436.703,443.041z" data-original="#000000" class="active-path" data-old_color="#000000" fill="#FFFCF9"/>
	</g>
</g><g>
	<g>
		<path d="M137.12,143.438L80.598,86.916c-1.561-1.562-4.09-1.562-5.652,0c-1.562,1.561-1.562,4.091,0,5.652l56.522,56.522    c0.781,0.781,1.803,1.171,2.826,1.171c1.023,0,2.045-0.39,2.826-1.171C138.681,147.529,138.681,145,137.12,143.438z" data-original="#000000" class="active-path" data-old_color="#000000" fill="#FFFCF9"/>
	</g>
</g><g>
	<g>
		<path d="M489.994,360.475l-73.869-30.604c-2.031-0.859-4.38,0.125-5.224,2.17c-0.843,2.03,0.125,4.372,2.163,5.215l73.869,30.604    c0.5,0.218,1.014,0.312,1.53,0.312c1.562,0,3.052-0.937,3.693-2.467C492.999,363.66,492.031,361.318,489.994,360.475z" data-original="#000000" class="active-path" data-old_color="#000000" fill="#FFFCF9"/>
	</g>
</g><g>
	<g>
		<path d="M98.57,198.329l-73.854-30.588c-2.03-0.843-4.38,0.125-5.223,2.163c-0.843,2.041,0.125,4.38,2.163,5.223l73.854,30.587    c0.499,0.207,1.014,0.304,1.53,0.304c1.561,0,3.052-0.929,3.692-2.466C101.575,201.511,100.607,199.172,98.57,198.329z" data-original="#000000" class="active-path" data-old_color="#000000" fill="#FFFCF9"/>
	</g>
</g><g>
	<g>
		<path d="M438.514,85.121c-1.561-1.562-4.09-1.562-5.652,0L253.014,264.98c-1.562,1.561-1.562,4.09,0,5.652    c0.78,0.78,1.803,1.171,2.826,1.171s2.045-0.39,2.825-1.17l179.849-179.86C440.076,89.212,440.076,86.682,438.514,85.121z" data-original="#000000" class="active-path" data-old_color="#000000" fill="#FFFCF9"/>
	</g>
</g><g>
	<g>
		<path d="M450.771,98.042c-0.453-1.425-1.662-2.479-3.139-2.729l-19.299-3.31c-2.162-0.379-4.238,1.089-4.613,3.263    c-0.375,2.175,1.085,4.243,3.264,4.614l11.687,2.006l-32.977,32.98l-20.97,0.016c-2.201,0-3.988,1.792-3.988,4.001    c0,2.205,1.787,3.993,3.996,3.993l22.618-0.015c1.061,0,2.076-0.421,2.826-1.171l39.612-39.612    C450.841,101.021,451.224,99.467,450.771,98.042z" data-original="#000000" class="active-path" data-old_color="#000000" fill="#FFFCF9"/>
	</g>
</g><g>
	<g>
		<path d="M431.597,95.249l-3.372-19.236c-0.257-1.467-1.311-2.67-2.732-3.118c-1.413-0.45-2.974-0.075-4.028,0.983l-39.551,39.55    c-0.749,0.749-1.17,1.764-1.17,2.826l-0.008,22.625c0,2.205,1.787,3.997,3.996,3.997c2.202,0,3.998-1.788,3.997-3.998    l0.008-20.969l32.938-32.941l2.045,11.663c0.383,2.175,2.467,3.607,4.629,3.248C430.528,99.496,431.98,97.424,431.597,95.249z" data-original="#000000" class="active-path" data-old_color="#000000" fill="#FFFCF9"/>
	</g>
</g></g> </svg>
