<?xml version="1.0"?>
<svg xmlns="http://www.w3.org/2000/svg" xmlns:xlink="http://www.w3.org/1999/xlink" version="1.1" id="Capa_1" x="0px" y="0px" viewBox="0 0 511.634 511.634" style="enable-background:new 0 0 511.634 511.634;" xml:space="preserve" width="512px" height="512px"><g><g>
	<g>
		<path d="M323.768,403.71H187.865c-2.209,0-3.997,1.779-3.997,3.997v55.96c0,1.061,0.421,2.076,1.171,2.826l15.989,15.988    c0.749,0.75,1.764,1.172,2.826,1.172H307.78c1.061,0,2.076-0.422,2.826-1.172l15.988-15.988c0.749-0.75,1.171-1.764,1.171-2.826    v-55.96C327.765,405.489,325.978,403.71,323.768,403.71z M319.771,462.012l-13.646,13.646H205.509l-13.647-13.646v-50.308h127.909    V462.012z" data-original="#000000" class="active-path" data-old_color="#000000" fill="#6C757D"/>
	</g>
</g><g>
	<g>
		<path d="M331.552,419.698l-151.892,7.994c-2.205,0.125-3.895,1.999-3.782,4.2c0.113,2.14,1.878,3.794,3.989,3.794    c0.07,0,0.144,0,0.215-0.016l151.892-7.994c2.21-0.109,3.895-1.998,3.786-4.199C335.635,421.275,333.731,419.51,331.552,419.698z" data-original="#000000" class="active-path" data-old_color="#000000" fill="#6C757D"/>
	</g>
</g><g>
	<g>
		<path d="M331.552,443.682l-151.892,7.994c-2.205,0.125-3.895,1.998-3.782,4.2c0.113,2.139,1.878,3.794,3.989,3.794    c0.07,0,0.144,0,0.215-0.016l151.892-7.994c2.21-0.109,3.895-1.999,3.786-4.2C335.635,445.259,333.731,443.51,331.552,443.682z" data-original="#000000" class="active-path" data-old_color="#000000" fill="#6C757D"/>
	</g>
</g><g>
	<g>
		<path d="M255.817,131.899c-74.939,0-135.903,60.965-135.903,135.907c0,47.185,23.862,90.06,63.954,115.121v24.78    c0,2.201,1.788,3.997,3.997,3.997h135.903c2.21,0,3.997-1.796,3.997-3.998v-24.779c40.089-25.045,63.954-67.92,63.954-115.121    C391.719,192.863,330.755,131.899,255.817,131.899z M321.707,377.275c-1.202,0.719-1.936,2.03-1.936,3.42v23.015H191.863v-23.015    c0-1.39-0.734-2.701-1.932-3.42c-38.835-23.421-62.022-64.345-62.022-109.469c0-70.531,57.381-127.912,127.909-127.912    c70.527,0,127.908,57.381,127.908,127.912C383.726,312.93,360.539,353.854,321.707,377.275z" data-original="#000000" class="active-path" data-old_color="#000000" fill="#6C757D"/>
	</g>
</g><g>
	<g>
		<path d="M293.603,476.111c-1.952-0.983-4.349-0.219-5.371,1.718c-0.297,0.561-7.534,13.818-32.414,13.818    c-24.846,0-32.099-13.21-32.415-13.818c-0.995-1.952-3.38-2.732-5.348-1.749c-1.975,0.983-2.776,3.387-1.788,5.355    c0.37,0.749,9.446,18.206,39.55,18.206s39.175-17.457,39.551-18.206C296.351,479.483,295.555,477.11,293.603,476.111z" data-original="#000000" class="active-path" data-old_color="#000000" fill="#6C757D"/>
	</g>
</g><g>
	<g>
		<path d="M83.955,263.805H3.997c-2.21,0-3.997,1.784-3.997,4.001c0,2.202,1.787,3.997,3.997,3.997h79.958    c2.21,0,3.997-1.795,3.998-3.997C87.953,265.589,86.165,263.805,83.955,263.805z" data-original="#000000" class="active-path" data-old_color="#000000" fill="#6C757D"/>
	</g>
</g><g>
	<g>
		<path d="M507.637,263.805l-79.943,0.004c-2.209,0-3.997,1.796-3.997,3.997c0,2.218,1.796,3.997,3.997,3.997h79.943    c2.209,0,3.997-1.795,3.997-3.997C511.634,265.589,509.838,263.805,507.637,263.805z" data-original="#000000" class="active-path" data-old_color="#000000" fill="#6C757D"/>
	</g>
</g><g>
	<g>
		<path d="M110.448,351.746c-1.105-1.921-3.56-2.576-5.461-1.468L35.739,390.25c-1.912,1.109-2.568,3.544-1.463,5.465    c0.741,1.28,2.084,1.998,3.466,1.998c0.679,0,1.366-0.171,1.995-0.545l69.247-39.973    C110.897,356.102,111.552,353.65,110.448,351.746z" data-original="#000000" class="active-path" data-old_color="#000000" fill="#6C757D"/>
	</g>
</g><g>
	<g>
		<path d="M477.362,139.902c-1.109-1.921-3.561-2.585-5.465-1.46l-69.217,39.971c-1.912,1.101-2.569,3.544-1.468,5.457    c0.75,1.281,2.093,1.999,3.467,1.999c0.688,0,1.374-0.172,1.998-0.539l69.217-39.971    C477.806,144.258,478.463,141.814,477.362,139.902z" data-original="#000000" class="active-path" data-old_color="#000000" fill="#6C757D"/>
	</g>
</g><g>
	<g>
		<path d="M383.725,46.273c-1.921-1.124-4.357-0.453-5.465,1.46l-39.956,69.224c-1.1,1.913-0.444,4.356,1.468,5.457    c0.625,0.367,1.311,0.539,1.999,0.539c1.374,0,2.717-0.719,3.466-1.999l39.956-69.224    C386.293,49.817,385.638,47.374,383.725,46.273z" data-original="#000000" class="active-path" data-old_color="#000000" fill="#6C757D"/>
	</g>
</g><g>
	<g>
		<path d="M259.829,15.99c0-2.209-1.792-3.997-3.997-3.997c-2.21,0-3.998,1.788-3.998,3.997l0.008,79.928    c0,2.209,1.792,3.997,3.998,3.997c2.209,0,3.998-1.788,3.997-3.997L259.829,15.99z" data-original="#000000" class="active-path" data-old_color="#000000" fill="#6C757D"/>
	</g>
</g><g>
	<g>
		<path d="M173.364,116.941l-39.972-69.216c-1.112-1.913-3.56-2.576-5.461-1.46c-1.913,1.101-2.568,3.544-1.464,5.457l39.972,69.216    c0.741,1.281,2.084,1.999,3.466,1.999c0.68,0,1.367-0.172,1.995-0.539C173.813,121.297,174.468,118.854,173.364,116.941z" data-original="#000000" class="active-path" data-old_color="#000000" fill="#6C757D"/>
	</g>
</g><g>
	<g>
		<path d="M475.91,390.235l-69.232-39.972c-1.912-1.108-4.356-0.453-5.465,1.468c-1.1,1.904-0.444,4.356,1.468,5.449l69.232,39.972    c0.624,0.374,1.311,0.546,1.998,0.546c1.374,0,2.717-0.718,3.467-1.998C478.478,393.779,477.822,391.343,475.91,390.235z" data-original="#000000" class="active-path" data-old_color="#000000" fill="#6C757D"/>
	</g>
</g><g>
	<g>
		<path d="M108.984,178.382L39.76,138.426c-1.917-1.124-4.36-0.453-5.461,1.46c-1.104,1.912-0.449,4.356,1.464,5.457l69.224,39.956    c0.629,0.367,1.316,0.539,1.995,0.539c1.381,0,2.724-0.719,3.466-1.999C111.552,181.926,110.897,179.483,108.984,178.382z" data-original="#000000" class="active-path" data-old_color="#000000" fill="#6C757D"/>
	</g>
</g><g>
	<g>
		<path d="M343.184,261.753l-23.983-39.972c-0.726-1.21-2.022-1.944-3.427-1.944H195.859c-1.405,0-2.705,0.734-3.427,1.944    l-23.983,39.972c-0.925,1.537-0.706,3.508,0.535,4.82l83.94,87.938c0.757,0.78,1.8,1.233,2.893,1.233s2.135-0.453,2.891-1.233    l83.937-87.938C343.894,265.262,344.113,263.29,343.184,261.753z M255.817,345.954l-78.944-82.703l21.251-35.419h115.385    l21.251,35.419L255.817,345.954z" data-original="#000000" class="active-path" data-old_color="#000000" fill="#6C757D"/>
	</g>
</g><g>
	<g>
		<path d="M323.768,259.808H187.865c-2.209,0-3.997,1.788-3.997,3.997c0,2.205,1.788,4.001,3.997,4.001h135.903    c2.21,0,3.997-1.796,3.997-4.001C327.765,261.596,325.978,259.808,323.768,259.808z" data-original="#000000" class="active-path" data-old_color="#000000" fill="#6C757D"/>
	</g>
</g><g>
	<g>
		<path d="M255.395,333.963l-31.977-63.954c-0.992-1.968-3.388-2.779-5.364-1.78c-1.975,0.983-2.776,3.387-1.788,5.355    l31.977,63.954c0.704,1.405,2.113,2.217,3.58,2.217c0.601,0,1.211-0.14,1.784-0.421    C255.583,338.335,256.382,335.946,255.395,333.963z" data-original="#000000" class="active-path" data-old_color="#000000" fill="#6C757D"/>
	</g>
</g><g>
	<g>
		<path d="M293.578,268.229c-1.975-0.999-4.38-0.188-5.363,1.78l-31.977,63.954c-0.987,1.983-0.187,4.372,1.788,5.371    c0.574,0.281,1.182,0.421,1.784,0.421c1.468,0,2.877-0.812,3.578-2.217l31.978-63.954    C296.349,271.617,295.554,269.212,293.578,268.229z" data-original="#000000" class="active-path" data-old_color="#000000" fill="#6C757D"/>
	</g>
</g><g>
	<g>
		<path d="M286.396,252.773l-27.979-23.982c-1.492-1.28-3.709-1.28-5.2,0l-27.98,23.982c-1.679,1.437-1.874,3.966-0.434,5.637    c1.437,1.679,3.963,1.867,5.633,0.438l25.381-21.758l25.379,21.758c0.758,0.648,1.679,0.96,2.6,0.96    c1.125,0,2.249-0.476,3.03-1.398C288.27,256.739,288.075,254.21,286.396,252.773z" data-original="#000000" class="active-path" data-old_color="#000000" fill="#6C757D"/>
	</g>
</g><g>
	<g>
		<path d="M222.668,252.985l-23.983-23.983c-1.561-1.561-4.09-1.561-5.652,0c-1.561,1.561-1.561,4.09,0,5.652l23.983,23.983    c0.781,0.78,1.804,1.171,2.826,1.171c1.023,0,2.046-0.39,2.826-1.171C224.23,257.076,224.23,254.547,222.668,252.985z" data-original="#000000" class="active-path" data-old_color="#000000" fill="#6C757D"/>
	</g>
</g><g>
	<g>
		<path d="M318.6,229.002c-1.561-1.561-4.09-1.561-5.652,0l-23.983,23.983c-1.561,1.561-1.561,4.09,0,5.652    c0.781,0.78,1.804,1.171,2.826,1.171c1.023,0,2.046-0.39,2.826-1.171l23.983-23.983    C320.162,233.093,320.162,230.564,318.6,229.002z" data-original="#000000" class="active-path" data-old_color="#000000" fill="#6C757D"/>
	</g>
</g><g>
	<g>
		<path d="M464.731,211.819c-0.563-2.123-2.756-3.349-4.887-2.826l-39.051,10.469c-2.123,0.578-3.396,2.764-2.826,4.903    c0.484,1.78,2.092,2.959,3.856,2.959c0.344,0,0.695-0.047,1.047-0.133l39.035-10.469    C464.043,216.144,465.309,213.958,464.731,211.819z" data-original="#000000" class="active-path" data-old_color="#000000" fill="#6C757D"/>
	</g>
</g><g>
	<g>
		<path d="M93.656,311.245c-0.57-2.124-2.76-3.342-4.895-2.826l-39.043,10.477c-2.131,0.578-3.4,2.763-2.826,4.902    c0.48,1.78,2.092,2.951,3.856,2.951c0.343,0,0.691-0.047,1.039-0.125l39.043-10.477C92.962,315.569,94.23,313.384,93.656,311.245z    " data-original="#000000" class="active-path" data-old_color="#000000" fill="#6C757D"/>
	</g>
</g><g>
	<g>
		<path d="M408.746,114.873c-1.561-1.562-4.09-1.562-5.652,0l-28.573,28.589c-1.562,1.561-1.562,4.09,0,5.652    c0.78,0.78,1.803,1.171,2.826,1.171s2.045-0.391,2.826-1.171l28.573-28.589C410.308,118.964,410.307,116.435,408.746,114.873z" data-original="#000000" class="active-path" data-old_color="#000000" fill="#6C757D"/>
	</g>
</g><g>
	<g>
		<path d="M137.096,386.518c-1.561-1.561-4.09-1.561-5.652,0l-28.565,28.59c-1.562,1.56-1.562,4.09,0,5.652    c0.781,0.78,1.803,1.17,2.826,1.17s2.046-0.389,2.825-1.17l28.566-28.59C138.657,390.61,138.657,388.08,137.096,386.518z" data-original="#000000" class="active-path" data-old_color="#000000" fill="#6C757D"/>
	</g>
</g><g>
	<g>
		<path d="M311.77,58.889c-2.101-0.5-4.318,0.702-4.895,2.834l-10.431,39.05c-0.577,2.132,0.686,4.326,2.826,4.896    c0.343,0.086,0.686,0.132,1.03,0.132c1.765,0,3.389-1.179,3.858-2.966l10.446-39.051C315.166,61.653,313.901,59.459,311.77,58.889    z" data-original="#000000" class="active-path" data-old_color="#000000" fill="#6C757D"/>
	</g>
</g><g>
	<g>
		<path d="M215.193,100.764L204.708,61.73c-0.573-2.124-2.767-3.396-4.898-2.818c-2.132,0.57-3.396,2.764-2.822,4.895l10.485,39.036    c0.48,1.779,2.092,2.958,3.856,2.958c0.343,0,0.695-0.046,1.042-0.141C214.502,105.089,215.767,102.896,215.193,100.764z" data-original="#000000" class="active-path" data-old_color="#000000" fill="#6C757D"/>
	</g>
</g><g>
	<g>
		<path d="M137.104,143.462l-28.589-28.558c-1.561-1.562-4.099-1.562-5.652,0c-1.561,1.561-1.561,4.09,0,5.652l28.589,28.558    c0.781,0.78,1.803,1.171,2.826,1.171s2.05-0.391,2.826-1.171C138.665,147.553,138.665,145.024,137.104,143.462z" data-original="#000000" class="active-path" data-old_color="#000000" fill="#6C757D"/>
	</g>
</g><g>
	<g>
		<path d="M408.754,415.108l-28.589-28.559c-1.561-1.561-4.098-1.561-5.652,0c-1.562,1.561-1.562,4.091,0,5.652l28.589,28.559    c0.78,0.78,1.804,1.17,2.826,1.17c1.023,0,2.046-0.389,2.826-1.17C410.316,419.198,410.316,416.669,408.754,415.108z" data-original="#000000" class="active-path" data-old_color="#000000" fill="#6C757D"/>
	</g>
</g><g>
	<g>
		<path d="M90.836,219.478l-39.05-10.446c-2.112-0.507-4.325,0.703-4.895,2.834c-0.57,2.131,0.695,4.325,2.826,4.895l39.051,10.445    c0.347,0.086,0.694,0.133,1.038,0.133c1.765,0,3.381-1.179,3.856-2.966C94.232,222.242,92.968,220.048,90.836,219.478z" data-original="#000000" class="active-path" data-old_color="#000000" fill="#6C757D"/>
	</g>
</g><g>
	<g>
		<path d="M461.905,318.894l-39.035-10.445c-2.108-0.515-4.325,0.702-4.887,2.842c-0.578,2.123,0.687,4.309,2.826,4.887    l39.035,10.445c0.342,0.094,0.686,0.141,1.03,0.141c1.764,0,3.387-1.186,3.857-2.968    C465.309,321.658,464.044,319.472,461.905,318.894z" data-original="#000000" class="active-path" data-old_color="#000000" fill="#6C757D"/>
	</g>
</g></g> </svg>
