<?xml version="1.0" encoding="UTF-8" standalone="no"?>
<svg
   xmlns:dc="http://purl.org/dc/elements/1.1/"
   xmlns:cc="http://creativecommons.org/ns#"
   xmlns:rdf="http://www.w3.org/1999/02/22-rdf-syntax-ns#"
   xmlns:svg="http://www.w3.org/2000/svg"
   xmlns="http://www.w3.org/2000/svg"
   xmlns:sodipodi="http://sodipodi.sourceforge.net/DTD/sodipodi-0.dtd"
   xmlns:inkscape="http://www.inkscape.org/namespaces/inkscape"
   height="411pt"
   viewBox="-34 0 411 411.41248"
   width="411pt"
   version="1.1"
   id="svg9915"
   sodipodi:docname="edgestreet13-logo-light.svg"
   inkscape:version="0.92.3 (2405546, 2018-03-11)">
  <metadata
     id="metadata9921">
    <rdf:RDF>
      <cc:Work
         rdf:about="">
        <dc:format>image/svg+xml</dc:format>
        <dc:type
           rdf:resource="http://purl.org/dc/dcmitype/StillImage" />
        <dc:title></dc:title>
      </cc:Work>
    </rdf:RDF>
  </metadata>
  <defs
     id="defs9919" />
  <sodipodi:namedview
     pagecolor="#ffffff"
     bordercolor="#666666"
     borderopacity="1"
     objecttolerance="10"
     gridtolerance="10"
     guidetolerance="10"
     inkscape:pageopacity="0"
     inkscape:pageshadow="2"
     inkscape:window-width="1366"
     inkscape:window-height="716"
     id="namedview9917"
     showgrid="false"
     inkscape:zoom="0.57964809"
     inkscape:cx="311.93557"
     inkscape:cy="64.292965"
     inkscape:window-x="0"
     inkscape:window-y="24"
     inkscape:window-maximized="0"
     inkscape:current-layer="svg9915"
     inkscape:pagecheckerboard="true" />
  <g
     aria-label="Edge"
     transform="rotate(-90)"
     style="font-style:normal;font-variant:normal;font-weight:normal;font-stretch:normal;font-size:120.93095398px;line-height:125%;font-family:aakar;-inkscape-font-specification:aakar;letter-spacing:0px;word-spacing:0px;fill:#fffcf9;fill-opacity:1;stroke:none;stroke-width:3.02327394px;stroke-linecap:butt;stroke-linejoin:miter;stroke-opacity:1"
     id="text10087">
    <path
       d="m -376.08265,13.871597 v 27.93505 h 37.97232 V 27.415864 q 0,-3.265136 2.53955,-3.265136 2.41862,0 2.41862,3.265136 v 19.348952 h -54.41893 q -3.26513,0 -3.26513,-2.53955 0,-2.418619 3.26513,-2.418619 h 6.53027 v -58.167789 h -6.53027 q -3.26513,0 -3.26513,-2.53955 0,-2.418619 3.26513,-2.418619 h 51.87938 v 16.8094028 q 0,3.2651358 -2.53955,3.2651358 -2.41862,0 -2.41862,-3.2651358 V -16.361142 h -35.43277 V 8.9134277 h 17.53499 V 3.4715348 q 0,-3.2651358 2.53955,-3.2651358 2.41862,0 2.41862,3.2651358 V 19.31349 q 0,3.265135 -2.41862,3.265135 -2.53955,0 -2.53955,-3.265135 v -5.441893 z"
       style="font-style:normal;font-variant:normal;font-weight:normal;font-stretch:normal;font-family:'Tlwg Mono';-inkscape-font-specification:'Tlwg Mono';fill:#fffcf9;fill-opacity:1;stroke-width:3.02327394px"
       id="path902" />
    <path
       d="m -262.81758,-26.27748 v 68.084127 h 6.53027 q 3.26514,0 3.26514,2.418619 0,2.53955 -3.26514,2.53955 h -11.48844 V 36.001961 q -8.5861,12.697751 -22.00943,12.697751 -10.76286,0 -18.50244,-7.981443 -7.61865,-7.981443 -7.61865,-19.107091 0,-11.125648 7.61865,-18.9861599 7.73958,-7.981443 18.50244,-7.981443 13.3024,0 22.00943,12.5768192 V -21.319311 h -6.53027 q -3.26514,0 -3.26514,-2.53955 0,-2.418619 3.26514,-2.418619 z m -26.60481,25.87922423 q -8.94889,0 -15.2373,6.40934057 -6.28841,6.4093402 -6.28841,15.6000932 0,9.311683 6.28841,15.721024 6.28841,6.40934 15.35823,6.40934 8.94889,0 15.2373,-6.40934 6.28841,-6.409341 6.28841,-15.479162 0,-9.432615 -6.28841,-15.8419552 -6.16748,-6.40934057 -15.35823,-6.40934057 z"
       style="font-style:normal;font-variant:normal;font-weight:normal;font-stretch:normal;font-family:'Tlwg Mono';-inkscape-font-specification:'Tlwg Mono';fill:#fffcf9;fill-opacity:1;stroke-width:3.02327394px"
       id="path904" />
    <path
       d="M -197.80396,7.0994634 V -3.6633915 h 11.48844 q 3.26514,0 3.26514,2.4186191 0,2.53955 -3.26514,2.53955 h -6.53027 V 50.150883 q 0,7.739581 -5.80469,13.423336 -5.80468,5.683755 -14.14892,5.683755 h -13.78613 q -3.26513,0 -3.26513,-2.53955 0,-2.418619 3.26513,-2.418619 h 14.02799 q 6.16748,0 10.40007,-4.353515 4.35351,-4.353514 4.35351,-10.520993 V 36.243823 q -7.98144,12.455889 -20.67919,12.455889 -10.27913,0 -17.65592,-7.981443 -7.25586,-7.981443 -7.25586,-19.107091 0,-11.125648 7.25586,-18.9861599 7.37679,-7.981443 17.65592,-7.981443 12.81868,0 20.67919,12.4558883 z m -20.3164,-7.49771917 q -8.46517,0 -14.39078,6.53027147 -5.92562,6.4093403 -5.92562,15.4791623 0,9.190752 5.92562,15.721024 5.92561,6.40934 14.39078,6.40934 8.46517,0 14.39078,-6.40934 5.92562,-6.530272 5.92562,-15.479162 0,-9.311684 -5.92562,-15.7210243 -5.80468,-6.53027147 -14.39078,-6.53027147 z"
       style="font-style:normal;font-variant:normal;font-weight:normal;font-stretch:normal;font-family:'Tlwg Mono';-inkscape-font-specification:'Tlwg Mono';fill:#fffcf9;fill-opacity:1;stroke-width:3.02327394px"
       id="path906" />
    <path
       d="m -115.61815,22.699556 h -50.30727 q 1.33024,9.553546 7.98144,15.358232 6.6512,5.683754 16.44661,5.683754 5.68375,0 11.60937,-1.813964 5.92562,-1.813964 9.55355,-4.716307 1.20931,-0.846517 1.93489,-0.846517 0.96745,0 1.5721,0.725586 0.72559,0.725586 0.72559,1.693033 0,3.144205 -8.70703,6.530272 -8.5861,3.386067 -16.8094,3.386067 -12.21403,0 -20.80013,-8.223305 -8.46516,-8.223305 -8.46516,-19.953608 0,-11.0047165 7.98144,-18.3815047 7.98144,-7.4977192 19.59081,-7.4977192 8.70703,0 15.47917,4.3535144 6.89306,4.3535143 10.1582,11.8512335 2.05582,4.837238 2.05582,11.851233 z m -50.30727,-4.958169 h 45.22817 q -1.45117,-8.2233045 -7.61865,-13.1814737 -6.16748,-4.95816907 -14.99544,-4.95816907 -8.82796,0 -14.8745,4.95816907 -6.04655,4.8372382 -7.73958,13.1814737 z"
       style="font-style:normal;font-variant:normal;font-weight:normal;font-stretch:normal;font-family:'Tlwg Mono';-inkscape-font-specification:'Tlwg Mono';fill:#fffcf9;fill-opacity:1;stroke-width:3.02327394px"
       id="path908" />
  </g>
  <g
     aria-label="Street"
     style="font-style:normal;font-variant:normal;font-weight:normal;font-stretch:normal;font-size:111.5446701px;line-height:125%;font-family:aakar;-inkscape-font-specification:aakar;letter-spacing:0px;word-spacing:0px;fill:#fffcf9;fill-opacity:1;stroke:none;stroke-width:2.78861666px;stroke-linecap:butt;stroke-linejoin:miter;stroke-opacity:1"
     id="text10091">
    <path
       d="m 33.33953,37.547058 v -2.119349 q 0,-3.011706 2.342439,-3.011706 2.230893,0 2.230893,3.011706 V 46.91681 q 0,3.011706 -2.230893,3.011706 -2.230894,0 -2.342439,-2.677072 -0.334634,-5.01951 -4.907965,-8.36585 -4.573332,-3.34634 -11.042922,-3.34634 -6.91577,0 -11.4891014,3.680974 -4.4617868,3.680974 -4.4617868,9.146663 0,5.800323 4.2386975,8.477395 4.3502417,2.565527 12.7160927,3.904063 10.931377,1.89626 15.05853,4.461787 6.91577,4.238698 6.91577,13.162271 0,8.142761 -6.469591,13.385361 -6.469591,5.242599 -16.508611,5.242599 -11.8237354,0 -18.8510496,-8.031216 v 3.234795 q 0,3.011706 -2.3424381,3.011706 -2.2308934,0 -2.2308934,-3.011706 V 79.710943 q 0,-3.011706 2.3424381,-3.011706 2.1193487,0 2.2308934,2.677072 0.2230893,5.465689 5.6887782,9.258208 5.4656888,3.792519 13.0507264,3.792519 7.808127,0 12.939182,-4.015608 5.242599,-4.127153 5.242599,-10.26211 0,-6.358046 -5.01951,-9.369752 Q 27.204574,66.660217 17.500187,64.987047 6.791899,63.202332 2.3301122,59.855992 -3.4702107,55.840384 -3.4702107,48.255346 q 0,-7.361948 5.8003229,-12.269913 5.9118675,-5.019511 14.7238968,-5.019511 9.592841,0 16.285521,6.581136 z"
       style="font-style:normal;font-variant:normal;font-weight:normal;font-stretch:normal;font-family:'Tlwg Mono';-inkscape-font-specification:'Tlwg Mono';fill:#fffcf9;fill-opacity:1;stroke-width:2.78861666px"
       id="path889" />
    <path
       d="M 71.332693,48.701525 H 95.87252 q 3.011707,0 3.011707,2.230893 0,2.342439 -3.011707,2.342439 H 71.332693 v 29.782426 q 0,4.238698 3.34634,6.804225 3.34634,2.565528 9.146663,2.565528 4.684876,0 9.927476,-1.226992 5.354144,-1.338536 8.588938,-3.234795 1.11545,-0.669268 1.78472,-0.669268 0.78081,0 1.45008,0.669268 0.66926,0.669268 0.66926,1.561625 0,2.453983 -7.585033,5.01951 -7.473493,2.453983 -14.612352,2.453983 -7.919671,0 -12.604547,-3.680974 -4.684876,-3.792519 -4.684876,-10.03902 V 53.274857 h -8.254306 q -3.123251,0 -3.123251,-2.342439 0,-2.230893 3.123251,-2.230893 h 8.254306 V 35.427709 q 0,-3.011706 2.342438,-3.011706 2.230893,0 2.230893,3.011706 z"
       style="font-style:normal;font-variant:normal;font-weight:normal;font-stretch:normal;font-family:'Tlwg Mono';-inkscape-font-specification:'Tlwg Mono';fill:#fffcf9;fill-opacity:1;stroke-width:2.78861666px"
       id="path891" />
    <path
       d="m 145.13169,48.701525 v 11.377556 q 7.69659,-7.027314 12.49301,-9.704386 4.79642,-2.788617 9.03512,-2.788617 4.46178,0 8.58894,3.457885 2.56552,2.119349 2.56552,3.457885 0,1.003902 -0.66927,1.67317 -0.66926,0.669268 -1.67317,0.669268 -0.89235,0 -1.78471,-0.892357 -3.90406,-3.792519 -7.36195,-3.792519 -3.79252,0 -7.91967,2.677072 -4.01561,2.677072 -13.27382,11.154467 v 24.651372 h 19.9665 q 3.01171,0 3.01171,2.342438 0,2.230893 -3.01171,2.230893 h -35.24812 q -3.0117,0 -3.0117,-2.342438 0,-2.230893 3.0117,-2.230893 h 10.70829 V 53.274857 h -8.36585 q -3.0117,0 -3.0117,-2.342439 0,-2.230893 3.0117,-2.230893 z"
       style="font-style:normal;font-variant:normal;font-weight:normal;font-stretch:normal;font-family:'Tlwg Mono';-inkscape-font-specification:'Tlwg Mono';fill:#fffcf9;fill-opacity:1;stroke-width:2.78861666px"
       id="path893" />
    <path
       d="m 242.35507,73.018263 h -46.40258 q 1.22699,8.812029 7.36194,14.166173 6.13496,5.2426 15.17008,5.2426 5.2426,0 10.70829,-1.67317 5.46569,-1.67317 8.81203,-4.350242 1.11544,-0.780813 1.78471,-0.780813 0.89236,0 1.45008,0.669268 0.66927,0.669268 0.66927,1.561625 0,2.900162 -8.03122,6.023412 -7.91967,3.123251 -15.5047,3.123251 -11.26602,0 -19.18569,-7.585037 -7.80812,-7.585038 -7.80812,-18.404871 0,-10.150565 7.36194,-16.95479 7.36195,-6.915769 18.07024,-6.915769 8.03122,0 14.27772,4.015608 6.35804,4.015608 9.36975,10.931377 1.89626,4.461787 1.89626,10.931378 z m -46.40258,-4.573331 h 41.7177 q -1.33853,-7.585038 -7.02731,-12.158369 -5.68878,-4.573332 -13.83154,-4.573332 -8.14276,0 -13.71999,4.573332 -5.57724,4.461786 -7.13886,12.158369 z"
       style="font-style:normal;font-variant:normal;font-weight:normal;font-stretch:normal;font-family:'Tlwg Mono';-inkscape-font-specification:'Tlwg Mono';fill:#fffcf9;fill-opacity:1;stroke-width:2.78861666px"
       id="path895" />
    <path
       d="m 309.23831,73.018263 h -46.40258 q 1.22699,8.812029 7.36194,14.166173 6.13496,5.2426 15.17008,5.2426 5.2426,0 10.70829,-1.67317 5.46569,-1.67317 8.81203,-4.350242 1.11544,-0.780813 1.78471,-0.780813 0.89236,0 1.45008,0.669268 0.66927,0.669268 0.66927,1.561625 0,2.900162 -8.03122,6.023412 -7.91967,3.123251 -15.5047,3.123251 -11.26602,0 -19.18569,-7.585037 -7.80813,-7.585038 -7.80813,-18.404871 0,-10.150565 7.36195,-16.95479 7.36195,-6.915769 18.07024,-6.915769 8.03122,0 14.27772,4.015608 6.35804,4.015608 9.36975,10.931377 1.89626,4.461787 1.89626,10.931378 z m -46.40258,-4.573331 h 41.7177 q -1.33853,-7.585038 -7.02731,-12.158369 -5.68878,-4.573332 -13.83154,-4.573332 -8.14276,0 -13.71999,4.573332 -5.57724,4.461786 -7.13886,12.158369 z"
       style="font-style:normal;font-variant:normal;font-weight:normal;font-stretch:normal;font-family:'Tlwg Mono';-inkscape-font-specification:'Tlwg Mono';fill:#fffcf9;fill-opacity:1;stroke-width:2.78861666px"
       id="path897" />
    <path
       d="m 338.86563,48.701525 h 24.53983 q 3.0117,0 3.0117,2.230893 0,2.342439 -3.0117,2.342439 h -24.53983 v 29.782426 q 0,4.238698 3.34634,6.804225 3.34634,2.565528 9.14666,2.565528 4.68488,0 9.92748,-1.226992 5.35414,-1.338536 8.58894,-3.234795 1.11544,-0.669268 1.78471,-0.669268 0.78081,0 1.45008,0.669268 0.66927,0.669268 0.66927,1.561625 0,2.453983 -7.58504,5.01951 -7.47349,2.453983 -14.61235,2.453983 -7.91967,0 -12.60455,-3.680974 -4.68487,-3.792519 -4.68487,-10.03902 V 53.274857 h -8.25431 q -3.12325,0 -3.12325,-2.342439 0,-2.230893 3.12325,-2.230893 h 8.25431 V 35.427709 q 0,-3.011706 2.34244,-3.011706 2.23089,0 2.23089,3.011706 z"
       style="font-style:normal;font-variant:normal;font-weight:normal;font-stretch:normal;font-family:'Tlwg Mono';-inkscape-font-specification:'Tlwg Mono';fill:#fffcf9;fill-opacity:1;stroke-width:2.78861666px"
       id="path899" />
  </g>
  <g
     aria-label="13"
     transform="scale(0.97322114,1.0275157)"
     style="font-style:normal;font-variant:normal;font-weight:normal;font-stretch:normal;font-size:321.40133667px;line-height:125%;font-family:aakar;-inkscape-font-specification:aakar;letter-spacing:0px;word-spacing:0px;fill:#fffcf9;fill-opacity:1;stroke:none;stroke-width:8.03503227px;stroke-linecap:butt;stroke-linejoin:miter;stroke-opacity:1"
     id="text10095">
    <path
       d="M 182.78582,124.93502 V 379.01157 H 119.38439 V 242.79264 q 0,-29.50364 -1.41241,-35.46714 -1.41241,-5.9635 -7.84671,-8.94525 -6.27737,-3.13869 -28.248167,-3.13869 h -6.27737 v -29.66057 q 45.981737,-9.88686 69.835737,-40.64597 z"
       style="font-style:normal;font-variant:normal;font-weight:normal;font-stretch:normal;font-family:Impact;-inkscape-font-specification:Impact;letter-spacing:19.28825569px;fill:#fffcf9;fill-opacity:1;stroke-width:8.03503227px"
       id="path884" />
    <path
       d="m 345.82586,235.10286 q 14.43795,4.86496 21.49999,16.0073 7.06204,10.98539 7.06204,51.7883 0,30.28831 -6.90511,47.08027 -6.9051,16.63503 -23.854,25.42335 -16.9489,8.63138 -43.47079,8.63138 -30.13137,0 -47.39414,-10.04379 -17.10583,-10.20073 -22.59853,-24.79561 -5.33577,-14.75182 -5.33577,-51.00363 v -20.08758 h 63.40144 v 41.2737 q 0,16.4781 1.88321,21.02919 2.04014,4.39416 8.78832,4.39416 7.37591,0 9.72992,-5.64963 2.35401,-5.64964 2.35401,-29.50364 v -17.57664 q 0,-14.59488 -3.29562,-21.34305 -3.29561,-6.74818 -9.72992,-8.78832 -6.4343,-2.19708 -24.95254,-2.51095 v -36.87955 q 22.59853,0 27.93429,-1.72627 5.33577,-1.72628 7.68978,-7.53285 2.35401,-5.80657 2.35401,-18.20437 v -14.12408 q 0,-13.33941 -2.82481,-17.57664 -2.66788,-4.23722 -8.47445,-4.23722 -6.59124,0 -9.10219,4.55109 -2.35401,4.39416 -2.35401,18.98904 v 20.87226 h -63.40144 v -21.65693 q 0,-36.40874 16.63503,-49.12042 16.63503,-12.8686 52.88684,-12.8686 45.354,0 61.51823,17.73357 16.16423,17.73357 16.16423,49.27735 0,21.34306 -5.80657,30.91605 -5.80657,9.41605 -20.40145,17.26276 z"
       style="font-style:normal;font-variant:normal;font-weight:normal;font-stretch:normal;font-family:Impact;-inkscape-font-specification:Impact;letter-spacing:19.28825569px;fill:#fffcf9;fill-opacity:1;stroke-width:8.03503227px"
       id="path886" />
  </g>
</svg>
